<svg width="14" height="14" viewBox="0 0 14 14" fill="none" xmlns="http://www.w3.org/2000/svg">
	<path
		d="M5.83344 2.33333H4.20011C3.54671 2.33333 3.21977 2.33333 2.97021 2.4605C2.75069 2.57234 2.57234 2.75069 2.46049 2.97022C2.33333 3.21978 2.33333 3.54672 2.33333 4.20012V9.80012C2.33333 10.4535 2.33333 10.7801 2.46049 11.0296C2.57234 11.2491 2.75069 11.4278 2.97021 11.5396C3.21953 11.6667 3.54607 11.6667 4.19819 11.6667H9.8018C10.4539 11.6667 10.78 11.6667 11.0293 11.5396C11.2488 11.4278 11.4278 11.2489 11.5396 11.0294C11.6667 10.7801 11.6667 10.4539 11.6667 9.80181V8.16667M9.33333 2.91667L5.83333 6.41667V8.16667H7.58333L11.0833 4.66667M9.33333 2.91667L11.0833 1.16667L12.8333 2.91667L11.0833 4.66667M9.33333 2.91667L11.0833 4.66667"
		stroke="#757575" stroke-linecap="round" stroke-linejoin="round" />
</svg>